# xmcd
#
# Track frame offsets: 
#        150
#        12790
#        32863
#        48817
#        57927
#        68235
#        80305
#        93633
#        118603
#        135005
#        157514
#        170948
#
# Disc length: 2395 seconds
#
# Revision: 0
# Processed by: cddbd v1.5.2PL0 Copyright (c) Steve Scherf et al.
# Submitted via: ExactAudioCopy v0.99pb5
#
DISCID=8c09590c
DTITLE=Willie P. Bennett - Tryin' To Start Out Clean
DYEAR=2003
DGENRE=Country
TTITLE0=Driftin' Snow
TTITLE1=White Line
TTITLE2=Don't Blame Your Blues On Me
TTITLE3=Country Squall
TTITLE4=In A Prayer
TTITLE5=My Pie
TTITLE6=Music In Your Eyes
TTITLE7=Willie's Diamond Joe
TTITLE8=Down To The Water
TTITLE9=Tryin' To Start Out Clean
TTITLE10=Driftin' Snow (reprise)
TTITLE11=Sault Creek III
EXTD=
EXTT0=
EXTT1=
EXTT2=
EXTT3=
EXTT4=
EXTT5=
EXTT6=
EXTT7=
EXTT8=
EXTT9=
EXTT10=
EXTT11=
PLAYORDER=
